<svg xmlns="http://www.w3.org/2000/svg" xmlns:xlink="http://www.w3.org/1999/xlink" width="65" zoomAndPan="magnify" viewBox="0 0 48.75 42" height="56" preserveAspectRatio="xMidYMid meet" version="1.0"><defs><clipPath id="928b3dc066"><path d="M 1 0 L 47 0 L 47 40.820312 L 1 40.820312 Z M 1 0 " clip-rule="nonzero"/></clipPath><clipPath id="7da4156392"><path d="M 17 0 L 31 0 L 31 12 L 17 12 Z M 17 0 " clip-rule="nonzero"/></clipPath><clipPath id="bcdd6e2b2e"><path d="M 17.5625 0.277344 L 30.042969 0 L 30.285156 10.90625 L 17.804688 11.179688 Z M 17.5625 0.277344 " clip-rule="nonzero"/></clipPath><clipPath id="d5745762dc"><path d="M 23.796875 0.136719 L 30.269531 10.90625 L 17.804688 11.179688 Z M 23.796875 0.136719 " clip-rule="nonzero"/></clipPath></defs><g clip-path="url(#928b3dc066)"><path fill="#7bb4b7" d="M 21.773438 1.234375 C 22.722656 -0.410156 25.097656 -0.410156 26.046875 1.234375 L 46.332031 36.371094 C 47.28125 38.015625 46.097656 40.070312 44.199219 40.070312 L 3.625 40.070312 C 1.726562 40.070312 0.539062 38.015625 1.488281 36.371094 Z M 21.773438 1.234375 " fill-opacity="1" fill-rule="nonzero"/></g><g clip-path="url(#7da4156392)"><g clip-path="url(#bcdd6e2b2e)"><g clip-path="url(#d5745762dc)"><path fill="#648e91" d="M 17.5625 0.277344 L 30.042969 0 L 30.285156 10.90625 L 17.804688 11.179688 Z M 17.5625 0.277344 " fill-opacity="1" fill-rule="nonzero"/></g></g></g></svg>