<svg xmlns="http://www.w3.org/2000/svg" xmlns:xlink="http://www.w3.org/1999/xlink" width="65" zoomAndPan="magnify" viewBox="0 0 48.75 42" height="56" preserveAspectRatio="xMidYMid meet" version="1.0"><defs><clipPath id="12f2473970"><path d="M 1 0 L 47 0 L 47 40.984375 L 1 40.984375 Z M 1 0 " clip-rule="nonzero"/></clipPath><clipPath id="38b1bd1257"><path d="M 17 0 L 31 0 L 31 12 L 17 12 Z M 17 0 " clip-rule="nonzero"/></clipPath><clipPath id="f2f9a5e6b3"><path d="M 17.632812 0.277344 L 30.164062 0 L 30.40625 10.949219 L 17.875 11.226562 Z M 17.632812 0.277344 " clip-rule="nonzero"/></clipPath><clipPath id="5ebbd17dfe"><path d="M 23.890625 0.140625 L 30.386719 10.949219 L 17.875 11.226562 Z M 23.890625 0.140625 " clip-rule="nonzero"/></clipPath></defs><g clip-path="url(#12f2473970)"><path fill="#936a5a" d="M 21.859375 1.238281 C 22.8125 -0.414062 25.195312 -0.414062 26.148438 1.238281 L 46.519531 36.519531 C 47.472656 38.167969 46.28125 40.230469 44.375 40.230469 L 3.636719 40.230469 C 1.730469 40.230469 0.539062 38.167969 1.492188 36.519531 Z M 21.859375 1.238281 " fill-opacity="1" fill-rule="nonzero"/></g><g clip-path="url(#38b1bd1257)"><g clip-path="url(#f2f9a5e6b3)"><g clip-path="url(#5ebbd17dfe)"><path fill="#735346" d="M 17.632812 0.277344 L 30.164062 0 L 30.40625 10.949219 L 17.875 11.226562 Z M 17.632812 0.277344 " fill-opacity="1" fill-rule="nonzero"/></g></g></g></svg>