<svg xmlns="http://www.w3.org/2000/svg" xmlns:xlink="http://www.w3.org/1999/xlink" width="65" zoomAndPan="magnify" viewBox="0 0 48.75 42" height="56" preserveAspectRatio="xMidYMid meet" version="1.0"><defs><clipPath id="0753c12c0f"><path d="M 17 0 L 31 0 L 31 12 L 17 12 Z M 17 0 " clip-rule="nonzero"/></clipPath><clipPath id="c76a74a1bc"><path d="M 17.632812 0.277344 L 30.164062 0 L 30.40625 10.949219 L 17.875 11.226562 Z M 17.632812 0.277344 " clip-rule="nonzero"/></clipPath><clipPath id="b9956b7e12"><path d="M 23.890625 0.136719 L 30.386719 10.949219 L 17.875 11.226562 Z M 23.890625 0.136719 " clip-rule="nonzero"/></clipPath></defs><g clip-path="url(#0753c12c0f)"><g clip-path="url(#c76a74a1bc)"><g clip-path="url(#b9956b7e12)"><path fill="#735346" d="M 17.632812 0.277344 L 30.164062 0 L 30.40625 10.949219 L 17.875 11.226562 Z M 17.632812 0.277344 " fill-opacity="1" fill-rule="nonzero"/></g></g></g><path fill="#936a5a" d="M 21.863281 1.238281 C 22.816406 -0.414062 25.199219 -0.414062 26.152344 1.238281 L 46.53125 36.539062 C 47.488281 38.191406 46.292969 40.253906 44.386719 40.253906 L 3.625 40.253906 C 1.71875 40.253906 0.527344 38.191406 1.480469 36.539062 Z M 21.863281 1.238281 " fill-opacity="1" fill-rule="nonzero"/></svg>