<svg xmlns="http://www.w3.org/2000/svg" xmlns:xlink="http://www.w3.org/1999/xlink" width="65" zoomAndPan="magnify" viewBox="0 0 48.75 42" height="56" preserveAspectRatio="xMidYMid meet" version="1.0"><defs><clipPath id="d0209e4b30"><path d="M 17 0 L 31 0 L 31 12 L 17 12 Z M 17 0 " clip-rule="nonzero"/></clipPath><clipPath id="79d2d62a60"><path d="M 17.5625 0.277344 L 30.042969 0 L 30.285156 10.90625 L 17.804688 11.179688 Z M 17.5625 0.277344 " clip-rule="nonzero"/></clipPath><clipPath id="5c55ecd174"><path d="M 23.796875 0.136719 L 30.269531 10.90625 L 17.804688 11.179688 Z M 23.796875 0.136719 " clip-rule="nonzero"/></clipPath></defs><g clip-path="url(#d0209e4b30)"><g clip-path="url(#79d2d62a60)"><g clip-path="url(#5c55ecd174)"><path fill="#877c64" d="M 17.5625 0.277344 L 30.042969 0 L 30.285156 10.90625 L 17.804688 11.179688 Z M 17.5625 0.277344 " fill-opacity="1" fill-rule="nonzero"/></g></g></g><path fill="#ae9f7e" d="M 21.777344 1.234375 C 22.726562 -0.410156 25.101562 -0.410156 26.050781 1.234375 L 46.347656 36.386719 C 47.296875 38.03125 46.109375 40.085938 44.210938 40.085938 L 3.621094 40.085938 C 1.722656 40.085938 0.535156 38.03125 1.484375 36.386719 Z M 21.777344 1.234375 " fill-opacity="1" fill-rule="nonzero"/></svg>