<svg width="40" height="40" viewBox="0 0 40 40" fill="none" xmlns="http://www.w3.org/2000/svg">
<circle cx="20" cy="20" r="19.5" fill="white" stroke="#E2E2E2"/>
<path d="M20.286 16.266L13 23.552V27.1949H16.643L23.929 19.909M20.286 16.266L22.8986 13.6534L22.9002 13.6518C23.2598 13.2922 23.4399 13.112 23.6475 13.0446C23.8305 12.9851 24.0275 12.9851 24.2105 13.0446C24.4179 13.112 24.5979 13.2919 24.957 13.6511L26.5415 15.2356C26.9022 15.5962 27.0826 15.7767 27.1502 15.9846C27.2097 16.1675 27.2096 16.3646 27.1502 16.5475C27.0827 16.7553 26.9026 16.9354 26.5424 17.2956L26.5415 17.2964L23.929 19.909M20.286 16.266L23.929 19.909" stroke="#252321" stroke-width="1.5" stroke-linecap="round" stroke-linejoin="round"/>
</svg>
