<svg xmlns="http://www.w3.org/2000/svg" xmlns:xlink="http://www.w3.org/1999/xlink" width="100" zoomAndPan="magnify" viewBox="0 0 75 74.999997" height="100" preserveAspectRatio="xMidYMid meet" version="1.0"><defs><clipPath id="294025d9f5"><path d="M 1.023438 0.875 L 73.773438 0.875 L 73.773438 73.625 L 1.023438 73.625 Z M 1.023438 0.875 " clip-rule="nonzero"/></clipPath></defs><g clip-path="url(#294025d9f5)"><path fill="#ff914d" d="M 74.125 37.425781 C 74.125 38.621094 74.066406 39.816406 73.949219 41.007812 C 73.832031 42.199219 73.65625 43.378906 73.421875 44.554688 C 73.1875 45.730469 72.898438 46.886719 72.550781 48.035156 C 72.203125 49.179688 71.800781 50.304688 71.34375 51.410156 C 70.882812 52.515625 70.375 53.597656 69.808594 54.652344 C 69.246094 55.710938 68.628906 56.734375 67.964844 57.730469 C 67.300781 58.726562 66.585938 59.6875 65.828125 60.613281 C 65.070312 61.535156 64.265625 62.421875 63.417969 63.269531 C 62.574219 64.117188 61.6875 64.917969 60.761719 65.679688 C 59.835938 66.4375 58.875 67.148438 57.878906 67.816406 C 56.886719 68.480469 55.859375 69.09375 54.804688 69.660156 C 53.75 70.222656 52.667969 70.734375 51.5625 71.191406 C 50.457031 71.652344 49.328125 72.054688 48.183594 72.402344 C 47.039062 72.75 45.878906 73.039062 44.703125 73.273438 C 43.53125 73.507812 42.347656 73.679688 41.15625 73.796875 C 39.964844 73.917969 38.769531 73.976562 37.574219 73.976562 C 36.375 73.976562 35.183594 73.917969 33.992188 73.796875 C 32.800781 73.679688 31.617188 73.507812 30.441406 73.273438 C 29.269531 73.039062 28.109375 72.75 26.964844 72.402344 C 25.816406 72.054688 24.691406 71.652344 23.585938 71.191406 C 22.480469 70.734375 21.398438 70.222656 20.34375 69.660156 C 19.289062 69.09375 18.261719 68.480469 17.265625 67.816406 C 16.273438 67.148438 15.3125 66.4375 14.386719 65.679688 C 13.460938 64.917969 12.574219 64.117188 11.730469 63.269531 C 10.882812 62.421875 10.078125 61.535156 9.320312 60.613281 C 8.558594 59.6875 7.847656 58.726562 7.183594 57.730469 C 6.519531 56.734375 5.902344 55.710938 5.339844 54.652344 C 4.773438 53.597656 4.261719 52.515625 3.804688 51.410156 C 3.347656 50.304688 2.945312 49.179688 2.597656 48.035156 C 2.25 46.886719 1.960938 45.730469 1.726562 44.554688 C 1.492188 43.378906 1.316406 42.199219 1.199219 41.007812 C 1.082031 39.816406 1.023438 38.621094 1.023438 37.425781 C 1.023438 36.226562 1.082031 35.03125 1.199219 33.839844 C 1.316406 32.648438 1.492188 31.46875 1.726562 30.292969 C 1.960938 29.121094 2.25 27.960938 2.597656 26.8125 C 2.945312 25.667969 3.347656 24.542969 3.804688 23.4375 C 4.261719 22.332031 4.773438 21.25 5.339844 20.195312 C 5.902344 19.136719 6.519531 18.113281 7.183594 17.117188 C 7.847656 16.121094 8.558594 15.160156 9.320312 14.238281 C 10.078125 13.3125 10.882812 12.425781 11.730469 11.578125 C 12.574219 10.730469 13.460938 9.929688 14.386719 9.167969 C 15.3125 8.410156 16.273438 7.699219 17.265625 7.03125 C 18.261719 6.367188 19.289062 5.753906 20.34375 5.1875 C 21.398438 4.625 22.480469 4.113281 23.585938 3.65625 C 24.691406 3.199219 25.816406 2.792969 26.964844 2.445312 C 28.109375 2.101562 29.269531 1.808594 30.441406 1.574219 C 31.617188 1.34375 32.800781 1.167969 33.992188 1.050781 C 35.183594 0.933594 36.375 0.875 37.574219 0.875 C 38.769531 0.875 39.964844 0.933594 41.15625 1.050781 C 42.347656 1.167969 43.53125 1.34375 44.703125 1.574219 C 45.878906 1.808594 47.039062 2.101562 48.183594 2.445312 C 49.328125 2.792969 50.457031 3.199219 51.5625 3.65625 C 52.667969 4.113281 53.75 4.625 54.804688 5.1875 C 55.859375 5.753906 56.886719 6.367188 57.878906 7.03125 C 58.875 7.699219 59.835938 8.410156 60.761719 9.167969 C 61.6875 9.929688 62.574219 10.730469 63.417969 11.578125 C 64.265625 12.425781 65.070312 13.3125 65.828125 14.238281 C 66.585938 15.160156 67.300781 16.121094 67.964844 17.117188 C 68.628906 18.113281 69.246094 19.136719 69.808594 20.195312 C 70.375 21.25 70.882812 22.332031 71.34375 23.4375 C 71.800781 24.542969 72.203125 25.667969 72.550781 26.8125 C 72.898438 27.960938 73.1875 29.121094 73.421875 30.292969 C 73.65625 31.46875 73.832031 32.648438 73.949219 33.839844 C 74.066406 35.03125 74.125 36.226562 74.125 37.425781 Z M 74.125 37.425781 " fill-opacity="1" fill-rule="nonzero"/></g><path fill="#ffffff" d="M 37.574219 48.390625 C 37.332031 48.390625 37.097656 48.34375 36.875 48.25 C 36.652344 48.15625 36.453125 48.023438 36.28125 47.855469 C 36.109375 47.683594 35.976562 47.484375 35.886719 47.261719 C 35.792969 47.039062 35.746094 46.804688 35.746094 46.5625 L 35.746094 28.285156 C 35.746094 28.042969 35.792969 27.8125 35.886719 27.585938 C 35.976562 27.363281 36.109375 27.164062 36.28125 26.992188 C 36.453125 26.824219 36.652344 26.691406 36.875 26.597656 C 37.097656 26.503906 37.332031 26.457031 37.574219 26.457031 C 37.816406 26.457031 38.050781 26.503906 38.273438 26.597656 C 38.496094 26.691406 38.695312 26.824219 38.867188 26.992188 C 39.039062 27.164062 39.167969 27.363281 39.261719 27.585938 C 39.355469 27.8125 39.402344 28.042969 39.402344 28.285156 L 39.402344 46.5625 C 39.402344 46.804688 39.355469 47.039062 39.261719 47.261719 C 39.167969 47.484375 39.039062 47.683594 38.867188 47.855469 C 38.695312 48.023438 38.496094 48.15625 38.273438 48.25 C 38.050781 48.34375 37.816406 48.390625 37.574219 48.390625 Z M 37.574219 48.390625 " fill-opacity="1" fill-rule="nonzero"/><path fill="#ffffff" d="M 37.574219 48.390625 C 37.332031 48.390625 37.097656 48.34375 36.875 48.25 C 36.652344 48.15625 36.453125 48.023438 36.28125 47.855469 C 36.109375 47.683594 35.976562 47.484375 35.886719 47.261719 C 35.792969 47.039062 35.746094 46.804688 35.746094 46.5625 L 35.746094 28.285156 C 35.746094 28.042969 35.792969 27.8125 35.886719 27.585938 C 35.976562 27.363281 36.109375 27.164062 36.28125 26.992188 C 36.453125 26.824219 36.652344 26.691406 36.875 26.597656 C 37.097656 26.503906 37.332031 26.457031 37.574219 26.457031 C 37.816406 26.457031 38.050781 26.503906 38.273438 26.597656 C 38.496094 26.691406 38.695312 26.824219 38.867188 26.992188 C 39.039062 27.164062 39.167969 27.363281 39.261719 27.585938 C 39.355469 27.8125 39.402344 28.042969 39.402344 28.285156 L 39.402344 46.5625 C 39.402344 46.804688 39.355469 47.039062 39.261719 47.261719 C 39.167969 47.484375 39.039062 47.683594 38.867188 47.855469 C 38.695312 48.023438 38.496094 48.15625 38.273438 48.25 C 38.050781 48.34375 37.816406 48.390625 37.574219 48.390625 Z M 37.574219 48.390625 " fill-opacity="1" fill-rule="nonzero"/><path fill="#ffffff" d="M 48.539062 37.425781 C 48.539062 37.667969 48.492188 37.898438 48.398438 38.125 C 48.308594 38.347656 48.175781 38.542969 48.003906 38.714844 C 47.832031 38.886719 47.636719 39.019531 47.410156 39.113281 C 47.1875 39.207031 46.953125 39.25 46.710938 39.25 L 28.4375 39.25 C 28.195312 39.25 27.960938 39.207031 27.738281 39.113281 C 27.511719 39.019531 27.316406 38.886719 27.144531 38.714844 C 26.972656 38.542969 26.839844 38.347656 26.746094 38.125 C 26.65625 37.898438 26.609375 37.667969 26.609375 37.425781 C 26.609375 37.183594 26.65625 36.949219 26.746094 36.726562 C 26.839844 36.5 26.972656 36.304688 27.144531 36.132812 C 27.316406 35.960938 27.511719 35.828125 27.738281 35.734375 C 27.960938 35.644531 28.195312 35.597656 28.4375 35.597656 L 46.710938 35.597656 C 46.953125 35.597656 47.1875 35.644531 47.410156 35.734375 C 47.636719 35.828125 47.832031 35.960938 48.003906 36.132812 C 48.175781 36.304688 48.308594 36.5 48.398438 36.726562 C 48.492188 36.949219 48.539062 37.183594 48.539062 37.425781 Z M 48.539062 37.425781 " fill-opacity="1" fill-rule="nonzero"/><path fill="#ffffff" d="M 48.539062 37.425781 C 48.539062 37.667969 48.492188 37.898438 48.398438 38.125 C 48.308594 38.347656 48.175781 38.542969 48.003906 38.714844 C 47.832031 38.886719 47.636719 39.019531 47.410156 39.113281 C 47.1875 39.207031 46.953125 39.25 46.710938 39.25 L 28.4375 39.25 C 28.195312 39.25 27.960938 39.207031 27.738281 39.113281 C 27.511719 39.019531 27.316406 38.886719 27.144531 38.714844 C 26.972656 38.542969 26.839844 38.347656 26.746094 38.125 C 26.65625 37.898438 26.609375 37.667969 26.609375 37.425781 C 26.609375 37.183594 26.65625 36.949219 26.746094 36.726562 C 26.839844 36.5 26.972656 36.304688 27.144531 36.132812 C 27.316406 35.960938 27.511719 35.828125 27.738281 35.734375 C 27.960938 35.644531 28.195312 35.597656 28.4375 35.597656 L 46.710938 35.597656 C 46.953125 35.597656 47.1875 35.644531 47.410156 35.734375 C 47.636719 35.828125 47.832031 35.960938 48.003906 36.132812 C 48.175781 36.304688 48.308594 36.5 48.398438 36.726562 C 48.492188 36.949219 48.539062 37.183594 48.539062 37.425781 Z M 48.539062 37.425781 " fill-opacity="1" fill-rule="nonzero"/></svg>