<svg width="40" height="40" viewBox="0 0 40 40" fill="none" xmlns="http://www.w3.org/2000/svg">
<circle cx="20" cy="20" r="19.5" fill="white" stroke="#E2E2E2"/>
<path d="M24.7166 21.7357C24.3564 22.7353 23.6735 23.5936 22.7711 24.1809C21.8686 24.7681 20.7954 25.0528 19.713 24.9919C18.6308 24.9311 17.598 24.5279 16.7704 23.8432C15.9428 23.1585 15.3652 22.2295 15.1247 21.196C14.8841 20.1624 14.9936 19.0804 15.4367 18.113C15.8798 17.1457 16.6324 16.3453 17.5811 15.8325C18.53 15.3197 19.6235 15.1222 20.697 15.2699C22.4029 15.5046 23.6466 16.7298 25 17.6667M25 17.6667V14M25 17.6667H21.25" stroke="#252321" stroke-width="1.5" stroke-linecap="round" stroke-linejoin="round"/>
</svg>
