<svg width="40" height="40" viewBox="0 0 40 40" fill="none" xmlns="http://www.w3.org/2000/svg">
<circle cx="20" cy="20" r="19.5" fill="white" stroke="#E2E2E2"/>
<path d="M24.5 15.1667L23.8993 23.8426C23.8468 24.6025 23.8204 24.9825 23.65 25.2706C23.4999 25.5242 23.2736 25.7281 23.0008 25.8554C22.691 26 22.2955 26 21.5046 26H18.4953C17.7045 26 17.309 26 16.9992 25.8554C16.7264 25.7281 16.5 25.5242 16.35 25.2706C16.1796 24.9825 16.1532 24.6025 16.1006 23.8426L15.5 15.1667M14 15.1667H26M23 15.1667L22.797 14.5803C22.6003 14.012 22.5019 13.7279 22.3195 13.5178C22.1584 13.3323 21.9516 13.1887 21.7179 13.1002C21.4532 13 21.1422 13 20.5202 13H19.4798C18.8578 13 18.5468 13 18.2821 13.1002C18.0484 13.1887 17.8416 13.3323 17.6805 13.5178C17.498 13.7279 17.3997 14.012 17.203 14.5803L17 15.1667" stroke="#252321" stroke-width="1.5" stroke-linecap="round" stroke-linejoin="round"/>
</svg>
