<svg xmlns="http://www.w3.org/2000/svg" xmlns:xlink="http://www.w3.org/1999/xlink" width="100" zoomAndPan="magnify" viewBox="0 0 75 74.999997" height="100" preserveAspectRatio="xMidYMid meet" version="1.0"><defs><clipPath id="9ea8fe4dd4"><path d="M 1.988281 1.988281 L 73.238281 1.988281 L 73.238281 73.238281 L 1.988281 73.238281 Z M 1.988281 1.988281 " clip-rule="nonzero"/></clipPath></defs><g clip-path="url(#9ea8fe4dd4)"><path fill="#252321" d="M 73.238281 37.613281 C 73.238281 38.777344 73.179688 39.941406 73.066406 41.105469 C 72.953125 42.265625 72.78125 43.417969 72.554688 44.5625 C 72.324219 45.707031 72.042969 46.835938 71.703125 47.953125 C 71.363281 49.070312 70.972656 50.167969 70.527344 51.246094 C 70.078125 52.324219 69.582031 53.378906 69.03125 54.40625 C 68.480469 55.433594 67.882812 56.433594 67.234375 57.40625 C 66.585938 58.375 65.890625 59.3125 65.152344 60.210938 C 64.410156 61.113281 63.628906 61.976562 62.804688 62.804688 C 61.976562 63.628906 61.113281 64.410156 60.210938 65.152344 C 59.3125 65.890625 58.375 66.585938 57.40625 67.234375 C 56.433594 67.882812 55.433594 68.480469 54.40625 69.03125 C 53.378906 69.582031 52.324219 70.078125 51.246094 70.527344 C 50.167969 70.972656 49.070312 71.363281 47.953125 71.703125 C 46.835938 72.042969 45.707031 72.324219 44.5625 72.554688 C 43.417969 72.78125 42.265625 72.953125 41.105469 73.066406 C 39.941406 73.179688 38.777344 73.238281 37.613281 73.238281 C 36.445312 73.238281 35.28125 73.179688 34.121094 73.066406 C 32.960938 72.953125 31.808594 72.78125 30.664062 72.554688 C 29.519531 72.324219 28.386719 72.042969 27.269531 71.703125 C 26.15625 71.363281 25.058594 70.972656 23.980469 70.527344 C 22.902344 70.078125 21.847656 69.582031 20.820312 69.03125 C 19.789062 68.480469 18.789062 67.882812 17.820312 67.234375 C 16.851562 66.585938 15.914062 65.890625 15.011719 65.152344 C 14.109375 64.410156 13.246094 63.628906 12.421875 62.804688 C 11.597656 61.976562 10.8125 61.113281 10.074219 60.210938 C 9.332031 59.3125 8.640625 58.375 7.992188 57.40625 C 7.34375 56.433594 6.742188 55.433594 6.195312 54.40625 C 5.644531 53.378906 5.144531 52.324219 4.699219 51.246094 C 4.253906 50.167969 3.859375 49.070312 3.523438 47.953125 C 3.183594 46.835938 2.898438 45.707031 2.671875 44.5625 C 2.445312 43.417969 2.273438 42.265625 2.160156 41.105469 C 2.042969 39.941406 1.988281 38.777344 1.988281 37.613281 C 1.988281 36.445312 2.042969 35.28125 2.160156 34.121094 C 2.273438 32.960938 2.445312 31.808594 2.671875 30.664062 C 2.898438 29.519531 3.183594 28.386719 3.523438 27.269531 C 3.859375 26.15625 4.253906 25.058594 4.699219 23.980469 C 5.144531 22.902344 5.644531 21.847656 6.195312 20.820312 C 6.742188 19.789062 7.34375 18.789062 7.992188 17.820312 C 8.640625 16.851562 9.332031 15.914062 10.074219 15.011719 C 10.8125 14.109375 11.597656 13.246094 12.421875 12.421875 C 13.246094 11.597656 14.109375 10.8125 15.011719 10.074219 C 15.914062 9.332031 16.851562 8.640625 17.820312 7.992188 C 18.789062 7.34375 19.789062 6.742188 20.820312 6.195312 C 21.847656 5.644531 22.902344 5.144531 23.980469 4.699219 C 25.058594 4.253906 26.15625 3.859375 27.269531 3.523438 C 28.386719 3.183594 29.519531 2.898438 30.664062 2.671875 C 31.808594 2.445312 32.960938 2.273438 34.121094 2.160156 C 35.28125 2.042969 36.445312 1.988281 37.613281 1.988281 C 38.777344 1.988281 39.941406 2.042969 41.105469 2.160156 C 42.265625 2.273438 43.417969 2.445312 44.5625 2.671875 C 45.707031 2.898438 46.835938 3.183594 47.953125 3.523438 C 49.070312 3.859375 50.167969 4.253906 51.246094 4.699219 C 52.324219 5.144531 53.378906 5.644531 54.40625 6.195312 C 55.433594 6.742188 56.433594 7.34375 57.40625 7.992188 C 58.375 8.640625 59.3125 9.332031 60.210938 10.074219 C 61.113281 10.8125 61.976562 11.597656 62.804688 12.421875 C 63.628906 13.246094 64.410156 14.109375 65.152344 15.011719 C 65.890625 15.914062 66.585938 16.851562 67.234375 17.820312 C 67.882812 18.789062 68.480469 19.789062 69.03125 20.820312 C 69.582031 21.847656 70.078125 22.902344 70.527344 23.980469 C 70.972656 25.058594 71.363281 26.15625 71.703125 27.269531 C 72.042969 28.386719 72.324219 29.519531 72.554688 30.664062 C 72.78125 31.808594 72.953125 32.960938 73.066406 34.121094 C 73.179688 35.28125 73.238281 36.445312 73.238281 37.613281 Z M 73.238281 37.613281 " fill-opacity="1" fill-rule="nonzero"/></g><path fill="#ffffff" d="M 30.054688 45.171875 C 29.890625 45.003906 29.761719 44.808594 29.667969 44.59375 C 29.578125 44.375 29.535156 44.148438 29.535156 43.910156 C 29.535156 43.675781 29.578125 43.445312 29.667969 43.230469 C 29.761719 43.011719 29.890625 42.816406 30.054688 42.652344 L 42.652344 30.054688 C 42.816406 29.886719 43.011719 29.761719 43.230469 29.667969 C 43.449219 29.578125 43.675781 29.535156 43.910156 29.535156 C 44.148438 29.535156 44.375 29.578125 44.59375 29.667969 C 44.8125 29.761719 45.003906 29.886719 45.171875 30.054688 C 45.335938 30.222656 45.464844 30.414062 45.554688 30.632812 C 45.648438 30.851562 45.691406 31.078125 45.691406 31.316406 C 45.691406 31.550781 45.648438 31.777344 45.554688 31.996094 C 45.464844 32.214844 45.335938 32.40625 45.171875 32.574219 L 32.574219 45.171875 C 32.40625 45.335938 32.214844 45.464844 31.996094 45.554688 C 31.777344 45.648438 31.550781 45.691406 31.316406 45.691406 C 31.078125 45.691406 30.851562 45.648438 30.632812 45.554688 C 30.414062 45.464844 30.222656 45.335938 30.054688 45.171875 Z M 30.054688 45.171875 " fill-opacity="1" fill-rule="nonzero"/><path fill="#ffffff" d="M 30.054688 45.171875 C 29.890625 45.003906 29.761719 44.808594 29.667969 44.59375 C 29.578125 44.375 29.535156 44.148438 29.535156 43.910156 C 29.535156 43.675781 29.578125 43.445312 29.667969 43.230469 C 29.761719 43.011719 29.890625 42.816406 30.054688 42.652344 L 42.652344 30.054688 C 42.816406 29.886719 43.011719 29.761719 43.230469 29.667969 C 43.449219 29.578125 43.675781 29.535156 43.910156 29.535156 C 44.148438 29.535156 44.375 29.578125 44.59375 29.667969 C 44.8125 29.761719 45.003906 29.886719 45.171875 30.054688 C 45.335938 30.222656 45.464844 30.414062 45.554688 30.632812 C 45.648438 30.851562 45.691406 31.078125 45.691406 31.316406 C 45.691406 31.550781 45.648438 31.777344 45.554688 31.996094 C 45.464844 32.214844 45.335938 32.40625 45.171875 32.574219 L 32.574219 45.171875 C 32.40625 45.335938 32.214844 45.464844 31.996094 45.554688 C 31.777344 45.648438 31.550781 45.691406 31.316406 45.691406 C 31.078125 45.691406 30.851562 45.648438 30.632812 45.554688 C 30.414062 45.464844 30.222656 45.335938 30.054688 45.171875 Z M 30.054688 45.171875 " fill-opacity="1" fill-rule="nonzero"/><path fill="#ffffff" d="M 45.167969 45.171875 C 45.003906 45.335938 44.808594 45.464844 44.59375 45.558594 C 44.375 45.648438 44.148438 45.691406 43.910156 45.691406 C 43.675781 45.691406 43.445312 45.648438 43.230469 45.558594 C 43.011719 45.464844 42.816406 45.335938 42.652344 45.171875 L 30.054688 32.574219 C 29.886719 32.410156 29.757812 32.214844 29.667969 31.996094 C 29.578125 31.777344 29.535156 31.550781 29.535156 31.316406 C 29.535156 31.078125 29.578125 30.851562 29.667969 30.632812 C 29.757812 30.414062 29.886719 30.222656 30.054688 30.054688 C 30.222656 29.890625 30.414062 29.761719 30.632812 29.671875 C 30.851562 29.578125 31.078125 29.535156 31.316406 29.535156 C 31.550781 29.535156 31.777344 29.578125 31.996094 29.671875 C 32.214844 29.761719 32.40625 29.890625 32.574219 30.054688 L 45.167969 42.652344 C 45.335938 42.820312 45.464844 43.011719 45.554688 43.230469 C 45.644531 43.449219 45.691406 43.675781 45.691406 43.910156 C 45.691406 44.148438 45.644531 44.375 45.554688 44.59375 C 45.464844 44.8125 45.335938 45.003906 45.167969 45.171875 Z M 45.167969 45.171875 " fill-opacity="1" fill-rule="nonzero"/><path fill="#ffffff" d="M 45.167969 45.171875 C 45.003906 45.335938 44.808594 45.464844 44.59375 45.558594 C 44.375 45.648438 44.148438 45.691406 43.910156 45.691406 C 43.675781 45.691406 43.445312 45.648438 43.230469 45.558594 C 43.011719 45.464844 42.816406 45.335938 42.652344 45.171875 L 30.054688 32.574219 C 29.886719 32.410156 29.757812 32.214844 29.667969 31.996094 C 29.578125 31.777344 29.535156 31.550781 29.535156 31.316406 C 29.535156 31.078125 29.578125 30.851562 29.667969 30.632812 C 29.757812 30.414062 29.886719 30.222656 30.054688 30.054688 C 30.222656 29.890625 30.414062 29.761719 30.632812 29.671875 C 30.851562 29.578125 31.078125 29.535156 31.316406 29.535156 C 31.550781 29.535156 31.777344 29.578125 31.996094 29.671875 C 32.214844 29.761719 32.40625 29.890625 32.574219 30.054688 L 45.167969 42.652344 C 45.335938 42.820312 45.464844 43.011719 45.554688 43.230469 C 45.644531 43.449219 45.691406 43.675781 45.691406 43.910156 C 45.691406 44.148438 45.644531 44.375 45.554688 44.59375 C 45.464844 44.8125 45.335938 45.003906 45.167969 45.171875 Z M 45.167969 45.171875 " fill-opacity="1" fill-rule="nonzero"/></svg>