<?xml version="1.0" encoding="UTF-8" standalone="no"?>
<!-- Created with Inkscape (http://www.inkscape.org/) -->

<svg
   width="566.92914"
   height="566.92908"
   viewBox="0 0 150 149.99999"
   version="1.1"
   id="svg13342"
   xmlns:xlink="http://www.w3.org/1999/xlink"
   xmlns="http://www.w3.org/2000/svg"
   xmlns:svg="http://www.w3.org/2000/svg"
   xmlns:rdf="http://www.w3.org/1999/02/22-rdf-syntax-ns#"
   xmlns:cc="http://creativecommons.org/ns#"
   xmlns:dc="http://purl.org/dc/elements/1.1/">
  <defs
     id="defs13336">
    <linearGradient
       id="linearGradient1488">
      <stop
         id="stop1484"
         offset="0"
         style="stop-color:#e5cb2c;stop-opacity:1;" />
      <stop
         id="stop1486"
         offset="1"
         style="stop-color:#fcf69c;stop-opacity:0.20668693;" />
    </linearGradient>
    <linearGradient
       id="linearGradient14076">
      <stop
         id="stop14072"
         offset="0"
         style="stop-color:#ffec2f;stop-opacity:0.65882355;" />
      <stop
         id="stop14074"
         offset="1"
         style="stop-color:#ffd01b;stop-opacity:1;" />
    </linearGradient>
    <linearGradient
       id="linearGradient14062">
      <stop
         style="stop-color:#6495ed;stop-opacity:0.65882355"
         offset="0"
         id="stop14058" />
      <stop
         style="stop-color:#0000ff;stop-opacity:1"
         offset="1"
         id="stop14060" />
    </linearGradient>
    <radialGradient
       xlink:href="#linearGradient1488"
       id="radialGradient14066"
       gradientUnits="userSpaceOnUse"
       gradientTransform="matrix(1.9625057,-0.02313612,0.0195723,1.660206,347.42899,130.63407)"
       cx="-356.68527"
       cy="-210.36827"
       fx="-356.68527"
       fy="-210.36827"
       r="75" />
    <radialGradient
       xlink:href="#linearGradient14076"
       id="radialGradient14070"
       cx="25.118668"
       cy="-41.774639"
       fx="25.118668"
       fy="-41.774639"
       r="62.995003"
       gradientUnits="userSpaceOnUse"
       gradientTransform="matrix(1.6803352,-0.03801053,0.02888381,1.2768698,-13.212124,11.256145)" />
    <radialGradient
       xlink:href="#linearGradient14062"
       id="radialGradient1460"
       gradientUnits="userSpaceOnUse"
       gradientTransform="matrix(1.9625057,-0.02313612,0.0195723,1.660206,347.42899,130.63407)"
       cx="-356.68527"
       cy="-210.36827"
       fx="-356.68527"
       fy="-210.36827"
       r="75" />
  </defs>
  <metadata
     id="metadata13339">
    <rdf:RDF>
      <cc:Work
         rdf:about="">
        <dc:format>image/svg+xml</dc:format>
        <dc:type
           rdf:resource="http://purl.org/dc/dcmitype/StillImage" />
      </cc:Work>
    </rdf:RDF>
  </metadata>
  <g
     id="g14040"
     style="fill:url(#radialGradient14066);fill-opacity:1"
     transform="translate(398.42338,265.71352)">
    <g
       style="fill:url(#radialGradient1460);fill-opacity:1"
       transform="matrix(1.1905707,0,0,1.1905706,-377.67487,-167.44231)"
       id="g12732">
      <path
         d="m 108.56264,-19.546272 c 0,34.330004 -28.665001,62.995004 -62.995001,62.995004 c -34.33,0 -62.995,-28.665 -62.995,-62.995004 c 0,-34.33 28.664,-62.995 62.995,-62.995 c 34.331,0 62.995001,28.664 62.995001,62.995"
         id="path11303"
         style="fill:url(#radialGradient14070);fill-opacity:1" />
    </g>
  </g>
  <path
     d="m 143.00984,45.714397 c 6.05881,35.32066 -15.03572,70.800833 -48.95986,82.358893 C 58.07093,140.33258 17.585569,122.21211 2.5391376,87.364117 C 9.7694776,129.54008 53.13482,157.26609 94.45477,146.11519 c 42.65935,-11.51402 66.13861,-59.721383 48.55507,-100.400793"
     id="path11305"
     style="opacity:0.278;fill:#fec100;fill-opacity:1;stroke-width:1.19057" />
  <g
     id="g1442"
     transform="translate(402.86608,266.34523)">
    <g
       id="g1448"
       transform="rotate(19.471449,-318.00671,-203.05753)">
      <g
         id="g1433">
        <g
           id="g1436">
          <path
             style="opacity:0.506;fill:#0c0b09;fill-opacity:1;fill-rule:evenodd;stroke:none;stroke-width:1.19057;paint-order:normal"
             id="path12483"
             d="m -338.02459,-230.33579 c -15.39295,5.92036 -15.39295,5.92036 -12.82366,-10.3705 c 2.56928,-16.29087 2.56928,-16.29087 15.39294,-5.92037 c 12.82366,10.3705 12.82366,10.3705 -2.56928,16.29087 z" />
        </g>
      </g>
      <path
         d="m -336.46195,-237.13409 c -1.17844,-0.50153 -2.83023,1.66481 -3.94821,2.12473 c -2.08891,0.8597 -4.49212,0.0204 -6.11219,-1.73273 c -1.71356,-1.85418 -2.72324,-5.11829 -2.60394,-8.17722 c 3.7e-4,-0.008 4.6e-4,-0.0101 4.3e-4,-0.005 c -0.058,1.85419 -0.33754,3.56812 -0.0158,5.40991 c 0.5329,3.05275 2.12192,5.59621 4.23682,6.81067 c 2.18634,1.25542 4.75521,0.97324 6.92359,-0.59286 c 0.66932,-0.4839 3.32435,-3.06918 1.51955,-3.83789"
         id="path11307-5"
         style="opacity:0.257;fill:#ffe000;stroke:none;stroke-width:0.164078" />
    </g>
  </g>
</svg>
