<?xml version="1.0" encoding="UTF-8" standalone="no"?>
<!-- Created with Inkscape (http://www.inkscape.org/) -->

<svg
   width="566.9292"
   height="566.92914"
   viewBox="0 0 150.00002 150"
   version="1.1"
   id="svg16639"
   xmlns:xlink="http://www.w3.org/1999/xlink"
   xmlns="http://www.w3.org/2000/svg"
   xmlns:svg="http://www.w3.org/2000/svg"
   xmlns:rdf="http://www.w3.org/1999/02/22-rdf-syntax-ns#"
   xmlns:cc="http://creativecommons.org/ns#"
   xmlns:dc="http://purl.org/dc/elements/1.1/">
  <defs
     id="defs16633">
    <linearGradient
       id="linearGradient12625">
      <stop
         style="stop-color:#fcec2a;stop-opacity:0.56;"
         offset="0"
         id="stop12621" />
      <stop
         style="stop-color:#fec100;stop-opacity:1;"
         offset="1"
         id="stop12623" />
    </linearGradient>
    <radialGradient
       xlink:href="#linearGradient12625"
       id="radialGradient17771"
       cx="-26.885918"
       cy="131.62617"
       fx="-26.885918"
       fy="131.62617"
       r="80.629417"
       gradientTransform="matrix(2.1265708,1.7329895,-1.5216175,0.83223015,220.23431,53.712456)"
       gradientUnits="userSpaceOnUse" />
  </defs>
  <metadata
     id="metadata16636">
    <rdf:RDF>
      <cc:Work
         rdf:about="">
        <dc:format>image/svg+xml</dc:format>
        <dc:type
           rdf:resource="http://purl.org/dc/dcmitype/StillImage" />
      </cc:Work>
    </rdf:RDF>
  </metadata>
  <g
     id="layer1"
     transform="translate(-0.95854459,-0.61130644)">
    <path
       style="opacity:1;fill:url(#radialGradient17771);fill-opacity:1;fill-rule:evenodd;stroke:none;stroke-opacity:1;paint-order:normal"
       id="path12609"
       d="m 15.503376,168.24034 c -23.8690118,97.46513 -23.8690118,97.46513 -96.341783,28.0614 C -153.31118,126.898 -153.31118,126.898 -56.969396,98.83661 C 39.372387,70.775216 39.372387,70.775216 15.503376,168.24034 Z"
       transform="matrix(0.65642273,-0.67613109,0.61898145,0.71702926,7.393913,-44.925936)" />
    <path
       style="opacity:0.278;fill:#feae00;fill-opacity:0.390123;fill-rule:evenodd;stroke:none;stroke-width:0.158638;stroke-opacity:1;paint-order:normal"
       d="m 141.74107,111.71606 c 4.23802,0.1593 3.75558,4.75226 3.61581,17.25996 c -0.26072,23.32965 -38.45906,22.36287 -72.36313,21.08847 c -33.90408,-1.2744 42.5109,-1.2113 59.01518,-20.3852 c 8.25215,-9.58696 5.49413,-18.12252 9.73214,-17.96323"
       id="path14779" />
    <g
       transform="rotate(20.386431,-862.92258,1062.2629)"
       id="g14139-0-7">
      <path
         d="m -338.02459,-230.33579 c -15.39295,5.92036 -15.39295,5.92036 -12.82366,-10.3705 c 2.56928,-16.29087 2.56928,-16.29087 15.39294,-5.92037 c 12.82366,10.3705 12.82366,10.3705 -2.56928,16.29087 z"
         id="path12483-7-8"
         style="opacity:0.506;fill:#0c0b09;fill-opacity:1;fill-rule:evenodd;stroke:none;stroke-width:1.19057;paint-order:normal" />
      <path
         style="opacity:0.257;fill:#ffe000;stroke:none;stroke-width:0.164078"
         id="path11307-5-2-1"
         d="m -336.46195,-237.13409 c -1.17844,-0.50153 -2.83023,1.66481 -3.94821,2.12473 c -2.08891,0.8597 -4.49212,0.0204 -6.11219,-1.73273 c -1.71356,-1.85418 -2.72324,-5.11829 -2.60394,-8.17722 c 3.7e-4,-0.008 4.6e-4,-0.0101 4.3e-4,-0.005 c -0.058,1.85419 -0.33754,3.56812 -0.0158,5.40991 c 0.5329,3.05275 2.12192,5.59621 4.23682,6.81067 c 2.18634,1.25542 4.75521,0.97324 6.92359,-0.59286 c 0.66932,-0.4839 3.32435,-3.06918 1.51955,-3.83789" />
    </g>
  </g>
</svg>
